<svg xmlns="http://www.w3.org/2000/svg"  viewBox="0 0 50 50" width="50px" height="50px"><path d="M36,3.99H14c-5.51,0-10,4.49-10,10v22c0,5.51,4.49,10,10,10h22c5.51,0,10-4.49,10-10v-22C46,8.48,41.51,3.99,36,3.99z M24.06,36.61l-0.01,0.02c-0.16,0.38-0.52,0.62-0.92,0.62h-9.38c-0.56,0-1-0.44-1-1v-9.38c0-0.4,0.24-0.76,0.62-0.92 c0.38-0.15,0.81-0.06,1.08,0.22l0.07,0.08c2.37,3.78,5.48,6.88,9.23,9.23l0.08,0.07C24.11,35.82,24.2,36.24,24.06,36.61z M37.25,36.25c0,0.56-0.44,1-1,1h-6.31c-0.27,0-0.52-0.1-0.71-0.3L13.05,20.77c-0.2-0.19-0.3-0.44-0.3-0.71v-6.31 c0-0.56,0.44-1,1-1h6.38c0.27,0,0.51,0.1,0.7,0.3l16.12,16.12c0.19,0.19,0.3,0.44,0.3,0.7V36.25z M37.25,23.13 c0,0.4-0.24,0.76-0.62,0.92c-0.12,0.05-0.25,0.07-0.37,0.07c-0.27,0-0.53-0.1-0.71-0.29l-0.07-0.08c-2.37-3.78-5.48-6.88-9.23-9.23 l-0.08-0.07c-0.28-0.27-0.37-0.69-0.23-1.06c0.17-0.4,0.53-0.64,0.93-0.64h9.38c0.56,0,1,0.44,1,1V23.13z"/></svg>